<?xml version="1.0" standalone="no"?><!DOCTYPE svg PUBLIC "-//W3C//DTD SVG 1.1//EN" "http://www.w3.org/Graphics/SVG/1.1/DTD/svg11.dtd"><svg t="1745924593715" class="icon" viewBox="0 0 1024 1024" version="1.1" xmlns="http://www.w3.org/2000/svg" p-id="1134" xmlns:xlink="http://www.w3.org/1999/xlink" width="200" height="200"><path d="M655.83 562.02l192.09 125.31c31.43 20.51 73.08-2.05 73.08-39.58V397.14c0-37.53-41.64-60.09-73.08-39.58L655.83 482.87c-28.58 18.65-28.58 60.52 0 79.16z" fill="#F4D7DB" p-id="1135"></path><path d="M675.7 843.87H223.21c-58.01 0-105.21-47.2-105.21-105.21V306.21C118 248.2 165.2 201 223.21 201H675.7c58.01 0 105.21 47.2 105.21 105.21v432.46c0 58.01-47.2 105.21-105.21 105.21zM223.21 251c-30.44 0-55.21 24.77-55.21 55.21v432.46c0 30.44 24.77 55.21 55.21 55.21H675.7c30.44 0 55.21-24.77 55.21-55.21V306.21c0-30.44-24.77-55.21-55.21-55.21H223.21z" fill="#333333" p-id="1136"></path><path d="M316 476c-46.32 0-84-37.68-84-84s37.68-84 84-84 84 37.68 84 84-37.68 84-84 84z m0-118c-18.75 0-34 15.25-34 34s15.25 34 34 34 34-15.25 34-34-15.25-34-34-34z" fill="#333333" p-id="1137"></path></svg>