<?xml version="1.0" standalone="no"?><!DOCTYPE svg PUBLIC "-//W3C//DTD SVG 1.1//EN" "http://www.w3.org/Graphics/SVG/1.1/DTD/svg11.dtd"><svg t="1745924612712" class="icon" viewBox="0 0 1024 1024" version="1.1" xmlns="http://www.w3.org/2000/svg" p-id="1582" xmlns:xlink="http://www.w3.org/1999/xlink" width="200" height="200"><path d="M647.09 905.38l-85.35-33.18a115.085 115.085 0 0 0-83.41 0l-85.35 33.18c-26.26 10.21-54.58-9.16-54.58-37.34V620.17c0-31.29 25.36-56.65 56.65-56.65h249.97c31.29 0 56.65 25.36 56.65 56.65v247.87c0 28.18-28.32 47.55-54.58 37.34z" fill="#F4D7DB" p-id="1583"></path><path d="M520.03 794.03c-45.62 0-89.89-8.94-131.58-26.57-40.25-17.03-76.4-41.39-107.43-72.43-31.03-31.03-55.4-67.18-72.43-107.43-17.63-41.69-26.57-85.96-26.57-131.58s8.94-89.89 26.57-131.58c17.03-40.25 41.39-76.4 72.43-107.43 31.03-31.03 67.18-55.4 107.43-72.43 41.69-17.63 85.96-26.57 131.58-26.57s89.89 8.94 131.58 26.57c40.25 17.03 76.4 41.39 107.43 72.43 31.03 31.03 55.4 67.18 72.43 107.43 17.63 41.69 26.57 85.96 26.57 131.58s-8.94 89.89-26.57 131.58c-17.03 40.25-41.39 76.4-72.43 107.43-31.03 31.03-67.18 55.4-107.43 72.43-41.69 17.63-85.96 26.57-131.58 26.57z m0-626.03c-76.93 0-149.26 29.96-203.66 84.36-54.4 54.4-84.36 126.73-84.36 203.66s29.96 149.26 84.36 203.66c54.4 54.4 126.72 84.36 203.66 84.36s149.26-29.96 203.66-84.36 84.36-126.73 84.36-203.66-29.96-149.26-84.36-203.66S596.97 168 520.03 168z" fill="#333333" p-id="1584"></path></svg>