<?xml version="1.0" standalone="no"?><!DOCTYPE svg PUBLIC "-//W3C//DTD SVG 1.1//EN" "http://www.w3.org/Graphics/SVG/1.1/DTD/svg11.dtd"><svg t="1745924605850" class="icon" viewBox="0 0 1024 1024" version="1.1" xmlns="http://www.w3.org/2000/svg" p-id="1432" xmlns:xlink="http://www.w3.org/1999/xlink" width="200" height="200"><path d="M679.32 353.93m-190.68 0a190.68 190.68 0 1 0 381.36 0 190.68 190.68 0 1 0-381.36 0Z" fill="#F4D7DB" p-id="1433"></path><path d="M454 695.91c-7.02 0-13.72-2.95-18.46-8.14L165.78 392.39c-15.59-17.08-19.49-40.83-10.15-61.98 9.33-21.16 29.49-34.3 52.62-34.3h491.52c23.12 0 43.29 13.14 52.62 34.3 9.33 21.16 5.44 44.91-10.15 61.98L472.48 687.77a24.997 24.997 0 0 1-18.46 8.14zM208.24 346.1c-4.04 0-5.97 2.43-6.87 4.48s-1.4 5.1 1.33 8.09L454 633.84l251.3-275.17c2.73-2.99 2.23-6.05 1.33-8.09-0.9-2.04-2.82-4.48-6.87-4.48H208.24z" fill="#333333" p-id="1434"></path><path d="M454 877.6c-13.81 0-25-11.19-25-25V660.09c0-13.81 11.19-25 25-25s25 11.19 25 25V852.6c0 13.81-11.19 25-25 25z" fill="#333333" p-id="1435"></path><path d="M548.27 894.54H359.74c-13.81 0-25-11.19-25-25s11.19-25 25-25h188.53c13.81 0 25 11.19 25 25s-11.19 25-25 25z" fill="#333333" p-id="1436"></path></svg>