<?xml version="1.0" standalone="no"?><!DOCTYPE svg PUBLIC "-//W3C//DTD SVG 1.1//EN" "http://www.w3.org/Graphics/SVG/1.1/DTD/svg11.dtd"><svg t="1745924601140" class="icon" viewBox="0 0 1024 1024" version="1.1" xmlns="http://www.w3.org/2000/svg" p-id="1283" xmlns:xlink="http://www.w3.org/1999/xlink" width="200" height="200"><path d="M211.2 662.77c-33.74-47.73-53.47-106.07-53.2-169.03 0.68-161.75 131.94-291.19 293.68-289.73 159.3 1.44 288.03 130.89 288.31 290.46C740.27 654.81 607.3 786 446.96 786H188.72c-19.06 0-29.82-21.89-18.17-36.98l39.89-51.67c7.8-10.11 8.14-24.14 0.77-34.57z" fill="#F4D7DB" p-id="1284"></path><path d="M827.28 860H569.03c-42.83 0-84.52-8.51-123.93-25.28-38.03-16.19-72.18-39.3-101.52-68.69-29.03-29.08-51.82-62.8-67.75-100.23-16.55-38.9-24.91-80.07-24.83-122.37 0.15-83.78 32.74-162.66 91.79-222.11 59.01-59.42 137.6-92.56 221.3-93.31 84.96-0.77 164.88 31.52 225.07 90.9 60.16 59.36 93.49 138.82 93.84 223.72 0.28 66.21-19.7 129.69-57.79 183.57-1.02 1.44-0.96 3.44 0.15 4.87l39.89 51.67c11.26 14.58 13.2 33.92 5.08 50.45-8.12 16.54-24.62 26.81-43.04 26.81z m-1.62-46.71zM567.04 278c-0.83 0-1.66 0-2.5 0.01-70.45 0.64-136.6 28.53-186.28 78.55C328.56 406.6 301.12 473 301 543.52c-0.12 70.21 27.57 136.69 77.97 187.18 24.79 24.83 53.63 44.35 85.72 58.01C497.87 802.83 532.97 810 569.03 810h254.09l-37.34-48.38c-14.62-18.94-15.18-44.77-1.4-64.28 32.04-45.33 48.85-98.76 48.62-154.5-0.3-71.5-28.35-138.39-78.97-188.34-50.05-49.39-116.38-76.51-187-76.51z" fill="#333333" p-id="1285"></path><path d="M426 539.44c-13.81 0-25-11.19-25-25V461c0-13.81 11.19-25 25-25s25 11.19 25 25v53.44c0 13.81-11.19 25-25 25zM615 539.44c-13.81 0-25-11.19-25-25V461c0-13.81 11.19-25 25-25s25 11.19 25 25v53.44c0 13.81-11.19 25-25 25z" fill="#333333" p-id="1286"></path></svg>