<?xml version="1.0" standalone="no"?><!DOCTYPE svg PUBLIC "-//W3C//DTD SVG 1.1//EN" "http://www.w3.org/Graphics/SVG/1.1/DTD/svg11.dtd"><svg t="1745906378272" class="icon" viewBox="0 0 1024 1024" version="1.1" xmlns="http://www.w3.org/2000/svg" p-id="957" xmlns:xlink="http://www.w3.org/1999/xlink" width="200" height="200"><path d="M734.0544 835.584h-361.472a38.3488 38.3488 0 0 1-37.12-30.0032L263.424 496.64c-7.424-31.0784 22.8864-57.4464 51.6608-45.2608l51.5584 21.8624A37.4784 37.4784 0 0 0 411.392 460.8l111.2576-147.5584a37.632 37.632 0 0 1 60.3648 0L694.2208 460.8a37.5296 37.5296 0 0 0 44.7488 12.2368l51.7632-21.9648c28.7232-12.1856 58.88 14.1312 51.712 45.1584l-71.2704 309.0432a38.3488 38.3488 0 0 1-37.12 30.3104z" fill="#FEE375" p-id="958"></path><path d="M751.2064 898.7136H292.352c-35.328 0-78.848-23.9104-90.88-76.3904L108.9024 409.6a76.3392 76.3392 0 0 1 25.6-76.288 68.1472 68.1472 0 0 1 72.0384-10.24l69.1712 30.72a28.672 28.672 0 0 0 35.2256-10.24l149.2992-206.2336a69.7344 69.7344 0 0 1 114.176 0l149.2992 205.9776a28.7232 28.7232 0 0 0 35.2256 10.24l69.4784-30.72a68.1472 68.1472 0 0 1 71.9872 10.24 76.4928 76.4928 0 0 1 25.6 76.1856l-92.16 416.1536c-8.6528 45.2608-49.5616 73.3184-82.6368 73.3184zM178.5856 358.0928a29.0816 29.0816 0 0 0-18.0736 6.7584 35.4816 35.4816 0 0 0-11.6224 35.84l92.5184 412.7232a54.784 54.784 0 0 0 51.2 44.4928h458.8544c14.2336 0 37.5808-14.336 42.3936-40.2944v-0.6656l92.16-416.4608a35.84 35.84 0 0 0-11.6736-35.84 27.904 27.904 0 0 0-29.5424-4.1984l-69.4784 30.72a69.632 69.632 0 0 1-84.8896-23.7568l-149.1456-206.08a28.8256 28.8256 0 0 0-47.872 0L344.1152 367.36a69.6832 69.6832 0 0 1-84.9408 23.7568l-69.1712-30.72a28.3648 28.3648 0 0 0-11.4176-2.304z" fill="#55524F" p-id="959"></path><path d="M519.1168 717.6192a50.0224 50.0224 0 0 1-35.84-15.36l-106.496-108.9536a20.48 20.48 0 1 1 29.2864-28.6208l106.5472 108.9536a8.8576 8.8576 0 0 0 13.3632 0l102.912-108.5952a20.48 20.48 0 1 1 29.696 28.16l-102.912 108.6464a50.176 50.176 0 0 1-36.096 15.872z" fill="#55524F" p-id="960"></path></svg>