<?xml version="1.0" standalone="no"?><!DOCTYPE svg PUBLIC "-//W3C//DTD SVG 1.1//EN" "http://www.w3.org/Graphics/SVG/1.1/DTD/svg11.dtd"><svg t="1745906453629" class="icon" viewBox="0 0 1024 1024" version="1.1" xmlns="http://www.w3.org/2000/svg" p-id="1261" xmlns:xlink="http://www.w3.org/1999/xlink" width="200" height="200"><path d="M801.6384 436.4288l-143.36-113.4592A145.0496 145.0496 0 0 0 479.7952 322.56L334.2848 436.4288a136.7552 136.7552 0 0 0-52.8896 107.52v211.8144c0 76.288 63.5392 138.24 141.9264 138.24h288.7168c78.3872 0 141.9264-61.7984 141.9264-138.24v-212.2752a136.6528 136.6528 0 0 0-52.3264-107.0592z" fill="#86C3FE" p-id="1262"></path><path d="M696.8832 931.84H340.5824c-107.8784 0-195.6352-91.392-195.6352-203.6736V446.976a205.9776 205.9776 0 0 1 72.6016-158.3104l179.5584-151.1936a190.5664 190.5664 0 0 1 246.9888 0.768l176.6912 150.528a206.2848 206.2848 0 0 1 71.68 157.6448v281.6c0.1024 112.2816-87.7056 203.8272-195.584 203.8272zM520.1408 133.376A149.6064 149.6064 0 0 0 423.5264 168.96L243.9168 320a165.12 165.12 0 0 0-58.0096 126.976v281.0368c0 89.7024 69.376 162.7136 154.6752 162.7136h356.3008c85.2992 0 154.7264-73.0112 154.7264-162.7136v-281.6a165.4272 165.4272 0 0 0-57.344-126.464l-176.7424-150.528a149.9648 149.9648 0 0 0-97.3824-36.0448z" fill="#55524F" p-id="1263"></path><path d="M272.5376 576.9728a20.48 20.48 0 0 1-20.48-20.48v-81.92a139.3152 139.3152 0 0 1 52.224-109.056l70.144-56.32a20.48 20.48 0 1 1 25.6 31.8976l-70.0928 56.32a98.5088 98.5088 0 0 0-36.9664 77.1584v81.92a20.48 20.48 0 0 1-20.4288 20.48z" fill="#55524F" p-id="1264"></path></svg>