<?xml version="1.0" standalone="no"?><!DOCTYPE svg PUBLIC "-//W3C//DTD SVG 1.1//EN" "http://www.w3.org/Graphics/SVG/1.1/DTD/svg11.dtd"><svg t="1745905665977" class="icon" viewBox="0 0 1024 1024" version="1.1" xmlns="http://www.w3.org/2000/svg" p-id="1127" xmlns:xlink="http://www.w3.org/1999/xlink" width="200" height="200"><path d="M569.05 385.1c51.74-46.32 130.66-44.14 179.76 4.97 49.06 49.05 51.31 127.86 5.15 179.63L569 754.92 384.09 569.7c-48.12-53.93-43.41-136.65 10.52-184.77 49.71-44.35 124.81-44.28 174.43 0.16z" fill="#F4D7DB" p-id="1128"></path><path d="M511 857.37c-14.82 0-28.74-5.78-39.21-16.26l-268.3-268.74c-0.33-0.33-0.65-0.67-0.96-1.02-40.92-45.86-61.53-104.91-58.03-166.28 3.5-61.36 30.68-117.69 76.54-158.61 82.1-73.25 203.24-77.66 290.04-13.31 90.56-67.06 218.24-58.85 299.42 22.34 86.17 86.16 90.15 224.9 9.05 315.85-0.31 0.35-0.64 0.69-0.97 1.03L550.22 841.11c-10.47 10.48-24.39 16.26-39.21 16.26zM239.39 537.56l267.79 268.23c1.31 1.31 2.8 1.59 3.83 1.59s2.52-0.28 3.83-1.59l267.85-268.23c63.01-71.2 59.75-179.43-7.54-246.71-67.55-67.56-176.22-70.56-247.4-6.85-9.49 8.5-23.86 8.5-33.35 0-68.37-61.24-171.58-61.33-240.06-0.23-35.9 32.03-57.17 76.12-59.91 124.15-2.72 47.8 13.24 93.81 44.97 129.64z" fill="#333333" p-id="1129"></path><path d="M544.13 585.35c-1.34 0-2.69-0.07-4.05-0.22-14.31-1.54-26.08-10.96-30.73-24.58l-47.28-138.58-31.99 60.69A24.998 24.998 0 0 1 407.96 496h-50.97c-13.81 0-25-11.19-25-25s11.19-25 25-25h35.88l39.45-74.84a36.607 36.607 0 0 1 35.24-19.43 36.584 36.584 0 0 1 31.79 24.67l48.04 140.79 36.31-60.13a25.003 25.003 0 0 1 21.38-12.08l59.89-0.05h0.02c13.8 0 24.99 11.18 25 24.98 0.01 13.81-11.17 25.01-24.98 25.02l-45.8 0.04-43.89 72.67c-6.73 11.15-18.44 17.69-31.2 17.69z" fill="#333333" p-id="1130"></path></svg>