<?xml version="1.0" standalone="no"?><!DOCTYPE svg PUBLIC "-//W3C//DTD SVG 1.1//EN" "http://www.w3.org/Graphics/SVG/1.1/DTD/svg11.dtd"><svg t="1745905733715" class="icon" viewBox="0 0 1024 1024" version="1.1" xmlns="http://www.w3.org/2000/svg" p-id="1276" xmlns:xlink="http://www.w3.org/1999/xlink" width="200" height="200"><path d="M181 203m56.88 0l424.24 0q56.88 0 56.88 56.88l0 424.24q0 56.88-56.88 56.88l-424.24 0q-56.88 0-56.88-56.88l0-424.24q0-56.88 56.88-56.88Z" fill="#F4D7DB" p-id="1277"></path><path d="M828 406.83H309c-13.81 0-25-11.19-25-25s11.19-25 25-25h519c13.81 0 25 11.19 25 25s-11.19 25-25 25zM828 622.58H309c-13.81 0-25-11.19-25-25s11.19-25 25-25h519c13.81 0 25 11.19 25 25s-11.19 25-25 25zM828 838.32H309c-13.81 0-25-11.19-25-25s11.19-25 25-25h519c13.81 0 25 11.19 25 25s-11.19 25-25 25z" fill="#333333" p-id="1278"></path></svg>