<?xml version="1.0" standalone="no"?><!DOCTYPE svg PUBLIC "-//W3C//DTD SVG 1.1//EN" "http://www.w3.org/Graphics/SVG/1.1/DTD/svg11.dtd"><svg t="1745906531442" class="icon" viewBox="0 0 1024 1024" version="1.1" xmlns="http://www.w3.org/2000/svg" p-id="1567" xmlns:xlink="http://www.w3.org/1999/xlink" width="200" height="200"><path d="M241.4592 540.6208a310.4768 242.176 0 1 0 620.9536 0 310.4768 242.176 0 1 0-620.9536 0Z" fill="#FFE048" p-id="1568"></path><path d="M346.368 479.0272m-31.5904 0a31.5904 31.5904 0 1 0 63.1808 0 31.5904 31.5904 0 1 0-63.1808 0Z" fill="#55524F" p-id="1569"></path><path d="M495.5648 479.0272m-31.5904 0a31.5904 31.5904 0 1 0 63.1808 0 31.5904 31.5904 0 1 0-63.1808 0Z" fill="#55524F" p-id="1570"></path><path d="M649.9328 479.0272m-31.5904 0a31.5904 31.5904 0 1 0 63.1808 0 31.5904 31.5904 0 1 0-63.1808 0Z" fill="#55524F" p-id="1571"></path><path d="M466.4832 904.8576c-101.4272 0-203.5712-25.2416-302.6944-56.32a20.48 20.48 0 0 1-11.9296-29.3376c38.0416-70.656 22.9888-138.752 5.5296-217.6-6.2976-28.6208-12.8512-58.2656-17.2032-89.6-16.6912-121.0368 28.0576-240.64 116.7872-311.6032a397.2608 397.2608 0 0 1 293.8368-84.1216A377.4464 377.4464 0 0 1 807.2192 261.12c68.864 89.344 97.28 207.8208 77.824 325.0688-16.9984 102.7584-67.9936 189.0304-139.8784 236.8-90.112 59.904-184.064 81.8688-278.6816 81.8688z m-267.9296-88.4224c200.192 60.2624 367.0016 76.8 523.9296-27.5456 62.464-41.472 107.008-117.76 122.112-209.3568 17.5616-106.0864-7.8848-212.992-69.8368-293.376a336.5376 336.5376 0 0 0-228.8128-129.024A355.5328 355.5328 0 0 0 282.624 232.4992C205.056 294.7072 165.9904 399.7184 180.7872 506.5216c4.096 29.7472 10.24 58.5216 16.64 86.4256 16.7424 75.776 32.6656 147.712 1.1264 223.488z m535.2448-10.24z" fill="#55524F" p-id="1572"></path></svg>