<?xml version="1.0" standalone="no"?><!DOCTYPE svg PUBLIC "-//W3C//DTD SVG 1.1//EN" "http://www.w3.org/Graphics/SVG/1.1/DTD/svg11.dtd"><svg t="1745906423789" class="icon" viewBox="0 0 1024 1024" version="1.1" xmlns="http://www.w3.org/2000/svg" p-id="1110" xmlns:xlink="http://www.w3.org/1999/xlink" width="200" height="200"><path d="M814.6432 362.5984c-43.8784-51.2-116.8384-52.8896-163.0208-4.096l-80.4864 85.0944a30.208 30.208 0 0 1-45.7216-1.1776L448.9216 353.28a107.8272 107.8272 0 0 0-163.072-4.096c-46.08 48.5888-47.8208 129.9456-4.1472 180.7872l209.92 244.224a65.3824 65.3824 0 0 0 98.0992 2.5088L706.56 653.2608l103.936-109.8752c46.1824-48.7936 48.0256-129.7408 4.1472-180.7872z" fill="#D49CFF" p-id="1111"></path><path d="M681.2672 604.16a20.48 20.48 0 0 1-14.848-34.6112l95.0784-99.8912a85.1456 85.1456 0 0 0 0-115.9168 73.1648 73.1648 0 0 0-107.52 0 20.48 20.48 0 0 1-29.696-28.2112 114.0736 114.0736 0 0 1 166.8096 0 126.464 126.464 0 0 1 0 172.3392L696.32 597.5552a20.48 20.48 0 0 1-15.0528 6.6048z" fill="#55524F" p-id="1112"></path><path d="M520.8576 896A81.92 81.92 0 0 1 460.8 869.7856L169.2672 563.2c-83.5584-87.7568-83.5584-230.4 0-318.464a209.92 209.92 0 0 1 152.9344-66.56 209.92 209.92 0 0 1 152.9344 66.56 20.48 20.48 0 0 1-29.696 28.2624 168.1408 168.1408 0 0 0-246.4768 0 192.2048 192.2048 0 0 0 0 262.0416l291.84 306.5344a41.3696 41.3696 0 0 0 30.208 13.2608 41.5744 41.5744 0 0 0 30.2592-13.2608l291.84-306.5344a192.2048 192.2048 0 0 0 0-262.0416 168.1408 168.1408 0 0 0-246.4768 0L471.296 400.4352a20.48 20.48 0 0 1-29.2352-28.7232l124.7744-127.1808a209.3568 209.3568 0 0 1 152.6784-66.2528 209.92 209.92 0 0 1 152.9344 66.56c83.5584 87.808 83.5584 230.7072 0 318.5152l-291.84 306.5344a81.92 81.92 0 0 1-59.7504 26.112z" fill="#55524F" p-id="1113"></path></svg>