<?xml version="1.0" standalone="no"?><!DOCTYPE svg PUBLIC "-//W3C//DTD SVG 1.1//EN" "http://www.w3.org/Graphics/SVG/1.1/DTD/svg11.dtd"><svg t="1745923943772" class="icon" viewBox="0 0 1024 1024" version="1.1" xmlns="http://www.w3.org/2000/svg" p-id="1601" xmlns:xlink="http://www.w3.org/1999/xlink" width="200" height="200"><path d="M603.94 522.46s361.71 181.22 292.17 478.71c0 0-329.32-60.6-292.17-478.71zM553.14 448.4S647.27 54.94 952.78 54.94c0 0 15.95 334.46-399.64 393.46z" fill="#84C584" p-id="1602"></path><path d="M968.73 389.4c-102-136-228.2-76.65-312.16-8.37C819 94.72 580.5-84.26 381.61 78.54c-119.84 98.1-76.82 209.46-13.92 289.69C89.35 195.48-98.66 425.75 55.27 631c98.61 131.5 219.88 80.36 303.71 15.1-160.72 281.78 74.29 460.78 274 301.18 131.35-105 71-227.75 1.08-309.6 290.43 199.5 492.66-37.59 334.67-248.28z" fill="#DABEDC" p-id="1603"></path><path d="M824.63 437.3c-68.77-91.7-153.89-51.69-210.52-5.64 109.58-193.09-51.3-313.79-185.42-204-80.82 66.16-51.81 141.23-9.39 195.34-187.71-116.5-314.5 38.8-210.69 177.22 66.5 88.68 148.28 54.19 204.81 10.18-108.39 190 50.11 310.75 184.8 203.12 88.58-70.79 47.85-153.6 0.73-208.79C794.8 739.28 931.18 579.39 824.63 437.3z" fill="#DABEDC" p-id="1604"></path><path d="M495.1 465.31a22.74 22.74 0 1 1-18.61-26.22 22.74 22.74 0 0 1 18.61 26.22z" fill="#FFEE1D" p-id="1605"></path><path d="M553.14 471.14m-22.73 0a22.73 22.73 0 1 0 45.46 0 22.73 22.73 0 1 0-45.46 0Z" fill="#FFEE1D" p-id="1606"></path><path d="M538.73 538.36A22.73 22.73 0 1 1 521.9 511a22.73 22.73 0 0 1 16.83 27.36z" fill="#FFEE1D" p-id="1607"></path><path d="M437.09 532.6m-22.73 0a22.73 22.73 0 1 0 45.46 0 22.73 22.73 0 1 0-45.46 0Z" fill="#FFEE1D" p-id="1608"></path><path d="M622.39 545.52a22.74 22.74 0 1 1-22.73-22.73 22.74 22.74 0 0 1 22.73 22.73z" fill="#FFEE1D" p-id="1609"></path><path d="M546.34 599.71m-22.73 0a22.73 22.73 0 1 0 45.46 0 22.73 22.73 0 1 0-45.46 0Z" fill="#FFEE1D" p-id="1610"></path><path d="M495.42 599.71A22.74 22.74 0 1 1 472.69 577a22.74 22.74 0 0 1 22.73 22.71z" fill="#FFEE1D" p-id="1611"></path></svg>